<?xml version="1.0" encoding="UTF-8" standalone="no"?>
<!DOCTYPE svg PUBLIC "-//W3C//DTD SVG 1.1//EN"
 "http://www.w3.org/Graphics/SVG/1.1/DTD/svg11.dtd">
<!-- Generated by graphviz version 2.43.0 (0)
 -->
<!-- Title: AI_Roadmap Pages: 1 -->
<svg width="392pt" height="692pt"
 viewBox="0.00 0.00 392.37 692.00" xmlns="http://www.w3.org/2000/svg" xmlns:xlink="http://www.w3.org/1999/xlink">
<g id="graph0" class="graph" transform="scale(1 1) rotate(0) translate(4 688)">
<title>AI_Roadmap</title>
<polygon fill="white" stroke="transparent" points="-4,4 -4,-688 388.37,-688 388.37,4 -4,4"/>
<!-- A -->
<g id="node1" class="node">
<title>A</title>
<ellipse fill="none" stroke="black" cx="65.64" cy="-342" rx="65.79" ry="18"/>
<text text-anchor="middle" x="65.64" y="-338.3" font-family="Times,serif" font-size="14.00">AI Engineer</text>
</g>
<!-- LLM Fundamentals -->
<g id="node2" class="node">
<title>LLM Fundamentals</title>
<ellipse fill="none" stroke="black" cx="275.83" cy="-666" rx="100.98" ry="18"/>
<text text-anchor="middle" x="275.83" y="-662.3" font-family="Times,serif" font-size="14.00">LLM Fundamentals</text>
</g>
<!-- A&#45;&gt;LLM Fundamentals -->
<g id="edge1" class="edge">
<title>A&#45;&gt;LLM Fundamentals</title>
<path fill="none" stroke="black" d="M67.1,-360.18C69.43,-412 83.45,-561.67 167.29,-639 172.47,-643.78 178.37,-647.74 184.67,-651.03"/>
<polygon fill="black" stroke="black" points="183.62,-654.39 194.17,-655.37 186.53,-648.03 183.62,-654.39"/>
</g>
<!-- Prompt Engineering -->
<g id="node3" class="node">
<title>Prompt Engineering</title>
<ellipse fill="none" stroke="black" cx="275.83" cy="-612" rx="105.08" ry="18"/>
<text text-anchor="middle" x="275.83" y="-608.3" font-family="Times,serif" font-size="14.00">Prompt Engineering</text>
</g>
<!-- A&#45;&gt;Prompt Engineering -->
<g id="edge2" class="edge">
<title>A&#45;&gt;Prompt Engineering</title>
<path fill="none" stroke="black" d="M68.64,-360.14C74.62,-405.39 96.6,-523.99 167.29,-585 172.48,-589.48 178.3,-593.23 184.49,-596.38"/>
<polygon fill="black" stroke="black" points="183.22,-599.65 193.78,-600.57 186.1,-593.27 183.22,-599.65"/>
</g>
<!-- Context Engineering -->
<g id="node4" class="node">
<title>Context Engineering</title>
<ellipse fill="none" stroke="black" cx="275.83" cy="-558" rx="107.48" ry="18"/>
<text text-anchor="middle" x="275.83" y="-554.3" font-family="Times,serif" font-size="14.00">Context Engineering</text>
</g>
<!-- A&#45;&gt;Context Engineering -->
<g id="edge3" class="edge">
<title>A&#45;&gt;Context Engineering</title>
<path fill="none" stroke="black" d="M70.95,-360.01C80.95,-397.84 109.46,-485.77 167.29,-531 172.79,-535.3 178.89,-538.93 185.31,-541.98"/>
<polygon fill="black" stroke="black" points="184.35,-545.37 194.92,-546.06 187.08,-538.93 184.35,-545.37"/>
</g>
<!-- Models &amp; Ecosystem -->
<g id="node5" class="node">
<title>Models &amp; Ecosystem</title>
<ellipse fill="none" stroke="black" cx="275.83" cy="-504" rx="108.58" ry="18"/>
<text text-anchor="middle" x="275.83" y="-500.3" font-family="Times,serif" font-size="14.00">Models &amp; Ecosystem</text>
</g>
<!-- A&#45;&gt;Models &amp; Ecosystem -->
<g id="edge4" class="edge">
<title>A&#45;&gt;Models &amp; Ecosystem</title>
<path fill="none" stroke="black" d="M74.96,-359.99C89.42,-389.24 122.05,-446.83 167.29,-477 173.71,-481.28 180.75,-484.88 188.07,-487.91"/>
<polygon fill="black" stroke="black" points="186.87,-491.2 197.46,-491.45 189.34,-484.65 186.87,-491.2"/>
</g>
<!-- Embeddings -->
<g id="node6" class="node">
<title>Embeddings</title>
<ellipse fill="none" stroke="black" cx="275.83" cy="-450" rx="68.79" ry="18"/>
<text text-anchor="middle" x="275.83" y="-446.3" font-family="Times,serif" font-size="14.00">Embeddings</text>
</g>
<!-- A&#45;&gt;Embeddings -->
<g id="edge5" class="edge">
<title>A&#45;&gt;Embeddings</title>
<path fill="none" stroke="black" d="M83.54,-359.51C102.32,-377.98 134.36,-406.61 167.29,-423 179.77,-429.21 193.79,-434.07 207.49,-437.84"/>
<polygon fill="black" stroke="black" points="206.82,-441.29 217.38,-440.4 208.58,-434.51 206.82,-441.29"/>
</g>
<!-- Vector DB -->
<g id="node7" class="node">
<title>Vector DB</title>
<ellipse fill="none" stroke="black" cx="275.83" cy="-396" rx="57.69" ry="18"/>
<text text-anchor="middle" x="275.83" y="-392.3" font-family="Times,serif" font-size="14.00">Vector DB</text>
</g>
<!-- A&#45;&gt;Vector DB -->
<g id="edge6" class="edge">
<title>A&#45;&gt;Vector DB</title>
<path fill="none" stroke="black" d="M112.95,-354.59C130.01,-359.19 149.52,-364.39 167.29,-369 184.5,-373.47 203.29,-378.23 220.28,-382.49"/>
<polygon fill="black" stroke="black" points="219.5,-385.9 230.05,-384.93 221.2,-379.11 219.5,-385.9"/>
</g>
<!-- RAG -->
<g id="node8" class="node">
<title>RAG</title>
<ellipse fill="none" stroke="black" cx="275.83" cy="-342" rx="31.4" ry="18"/>
<text text-anchor="middle" x="275.83" y="-338.3" font-family="Times,serif" font-size="14.00">RAG</text>
</g>
<!-- A&#45;&gt;RAG -->
<g id="edge7" class="edge">
<title>A&#45;&gt;RAG</title>
<path fill="none" stroke="black" d="M131.37,-342C164.97,-342 204.97,-342 234.19,-342"/>
<polygon fill="black" stroke="black" points="234.44,-345.5 244.44,-342 234.44,-338.5 234.44,-345.5"/>
</g>
<!-- AI Agents -->
<g id="node9" class="node">
<title>AI Agents</title>
<ellipse fill="none" stroke="black" cx="275.83" cy="-288" rx="55.79" ry="18"/>
<text text-anchor="middle" x="275.83" y="-284.3" font-family="Times,serif" font-size="14.00">AI Agents</text>
</g>
<!-- A&#45;&gt;AI Agents -->
<g id="edge8" class="edge">
<title>A&#45;&gt;AI Agents</title>
<path fill="none" stroke="black" d="M112.95,-329.41C130.01,-324.81 149.52,-319.61 167.29,-315 184.81,-310.45 203.97,-305.6 221.2,-301.28"/>
<polygon fill="black" stroke="black" points="222.25,-304.63 231.1,-298.81 220.55,-297.84 222.25,-304.63"/>
</g>
<!-- MCP -->
<g id="node10" class="node">
<title>MCP</title>
<ellipse fill="none" stroke="black" cx="275.83" cy="-234" rx="33.29" ry="18"/>
<text text-anchor="middle" x="275.83" y="-230.3" font-family="Times,serif" font-size="14.00">MCP</text>
</g>
<!-- A&#45;&gt;MCP -->
<g id="edge9" class="edge">
<title>A&#45;&gt;MCP</title>
<path fill="none" stroke="black" d="M83.54,-324.49C102.32,-306.02 134.36,-277.39 167.29,-261 187.93,-250.73 212.79,-244.16 233.41,-240.07"/>
<polygon fill="black" stroke="black" points="234.26,-243.47 243.46,-238.21 232.99,-236.59 234.26,-243.47"/>
</g>
<!-- AI Safety -->
<g id="node11" class="node">
<title>AI Safety</title>
<ellipse fill="none" stroke="black" cx="275.83" cy="-180" rx="53.09" ry="18"/>
<text text-anchor="middle" x="275.83" y="-176.3" font-family="Times,serif" font-size="14.00">AI Safety</text>
</g>
<!-- A&#45;&gt;AI Safety -->
<g id="edge10" class="edge">
<title>A&#45;&gt;AI Safety</title>
<path fill="none" stroke="black" d="M74.96,-324.01C89.42,-294.76 122.05,-237.17 167.29,-207 181.35,-197.63 198.41,-191.51 214.76,-187.51"/>
<polygon fill="black" stroke="black" points="215.81,-190.86 224.82,-185.29 214.3,-184.03 215.81,-190.86"/>
</g>
<!-- Observability -->
<g id="node12" class="node">
<title>Observability</title>
<ellipse fill="none" stroke="black" cx="275.83" cy="-126" rx="73.39" ry="18"/>
<text text-anchor="middle" x="275.83" y="-122.3" font-family="Times,serif" font-size="14.00">Observability</text>
</g>
<!-- A&#45;&gt;Observability -->
<g id="edge11" class="edge">
<title>A&#45;&gt;Observability</title>
<path fill="none" stroke="black" d="M70.95,-323.99C80.95,-286.16 109.46,-198.23 167.29,-153 176.65,-145.68 187.74,-140.32 199.2,-136.4"/>
<polygon fill="black" stroke="black" points="200.33,-139.71 208.87,-133.44 198.28,-133.02 200.33,-139.71"/>
</g>
<!-- Evaluation -->
<g id="node13" class="node">
<title>Evaluation</title>
<ellipse fill="none" stroke="black" cx="275.83" cy="-72" rx="60.39" ry="18"/>
<text text-anchor="middle" x="275.83" y="-68.3" font-family="Times,serif" font-size="14.00">Evaluation</text>
</g>
<!-- A&#45;&gt;Evaluation -->
<g id="edge12" class="edge">
<title>A&#45;&gt;Evaluation</title>
<path fill="none" stroke="black" d="M68.64,-323.86C74.62,-278.61 96.6,-160.01 167.29,-99 178.54,-89.29 192.78,-82.98 207.19,-78.91"/>
<polygon fill="black" stroke="black" points="208.29,-82.24 217.15,-76.43 206.6,-75.45 208.29,-82.24"/>
</g>
<!-- Multimodal AI -->
<g id="node14" class="node">
<title>Multimodal AI</title>
<ellipse fill="none" stroke="black" cx="275.83" cy="-18" rx="76.89" ry="18"/>
<text text-anchor="middle" x="275.83" y="-14.3" font-family="Times,serif" font-size="14.00">Multimodal AI</text>
</g>
<!-- A&#45;&gt;Multimodal AI -->
<g id="edge13" class="edge">
<title>A&#45;&gt;Multimodal AI</title>
<path fill="none" stroke="black" d="M67.1,-323.82C69.43,-272 83.45,-122.33 167.29,-45 175.31,-37.61 185.04,-32.16 195.34,-28.17"/>
<polygon fill="black" stroke="black" points="196.6,-31.44 204.93,-24.89 194.33,-24.81 196.6,-31.44"/>
</g>
</g>
</svg>
